<svg xmlns="http://www.w3.org/2000/svg" width="140" height="18" fill="none"><g fill="#fff" opacity=".4"><path d="M72.07 2.4c.12.22.19.47.19.72v12.45c-.01.44-.2.86-.52 1.17-.32.31-.76.5-1.21.5h-5.14V18h5.93c.45 0 .89-.19 1.21-.5.32-.3.5-.73.52-1.17V3.88a1.7 1.7 0 0 0-.97-1.5Zm7.98-.19v15.01h-2.01V18h2.8V2.2h-.79Zm12.46 0v15.01h-2.23l.22.77h2.8V2.2h-.79Zm-4.85 8.14v6.88h-2.01V18h2.8v-5.02l-.8-2.63Zm12.23 1.1h2.31v-.78h-3.1c-.26 0-.52-.06-.76-.17a1.74 1.74 0 0 0 1.55.95Zm1.07 1-.8.18v1.87h.8v-2.05Zm3.88-10.05c.12.22.18.47.19.72v3.2l-2.04.46v.94l2.82-.64v-3.2c0-.31-.09-.61-.26-.88a1.72 1.72 0 0 0-.7-.6Zm-69.92 0c.12.22.18.47.18.72v12.45c0 .44-.2.86-.52 1.17-.32.31-.75.5-1.2.5h-4.2a1.7 1.7 0 0 1-.76-.18 1.77 1.77 0 0 0 1.54.94h4.2c.46 0 .9-.19 1.22-.5.32-.3.5-.73.51-1.17V3.88c0-.3-.1-.61-.26-.88a1.71 1.71 0 0 0-.71-.6Zm7.83 5.57h.8V4.92h1.24v-.76h-2.04v3.8Zm4.65 3.29a1.66 1.66 0 0 0 .98-1.49V3.88a1.7 1.7 0 0 0-.97-1.5c.11.23.17.48.18.73v5.91c0 .32-.1.62-.26.89-.18.26-.42.47-.72.6l1.17 6.72h-2.15l.13.76h2.8l-1.16-6.73Zm-3.57-.6h-1.08v6.57h-2V18h2.8v-6.55h.41l-.13-.8Zm11.06 3.83h.8V4.92h1.23v-.76h-2.03v10.33ZM17.74 7.97h.78V4.92h1.24v-.76h-2.02v3.8Zm5.64.55V3.88a1.7 1.7 0 0 0-.97-1.49c.12.23.18.48.18.73v4.64a1.6 1.6 0 0 1-.61 1.29 1.9 1.9 0 0 1 .63 1.35v5.16c0 .45-.2.88-.53 1.19a1.8 1.8 0 0 1-1.24.48h-5.12V18h5.93c.46 0 .9-.18 1.21-.5.33-.3.51-.73.52-1.17v-5.16a1.85 1.85 0 0 0-.64-1.35 1.64 1.64 0 0 0 .64-1.29Z"/><path d="M59.75 3.12c0-.25-.07-.5-.18-.73.28.14.53.35.7.62.17.26.26.56.26.87v12.45A1.74 1.74 0 0 1 58.8 18h-4.2c-.32 0-.64-.1-.91-.26a1.7 1.7 0 0 1-.64-.68c.24.12.5.18.76.18h4.2a1.75 1.75 0 0 0 1.74-1.67V3.12Zm8.44 11.38h-.8V4.16h2.04v.76h-1.24v9.58Zm36.84-4.86c0-.26-.07-.5-.19-.73.3.13.53.35.7.61.17.26.27.57.27.88v5.93c-.01.44-.2.86-.52 1.17-.32.31-.76.5-1.21.5h-4.2c-.32 0-.64-.1-.91-.26a1.7 1.7 0 0 1-.63-.68c.23.12.5.18.75.18h4.2a1.73 1.73 0 0 0 1.74-1.67V9.64Zm-4.86-1.67V4.15h2.03v.77h-1.24v3.05h-.8Zm12.5 2.7h.26l.53 1.64V18h-2.8v-.77h2.01v-6.56Zm4.96-8.46h1.05l-2.62 7.87 2.62 7.92h-2.83l-.02-.1-.22-.67h2.27l-2.61-7.91 2.36-7.1Zm7.62 15.01v-15h.8v15.77h-2.8v-.77h2Zm11.79-5.8 2.17-2.1.79.77-2.16 2.1-.8-.77Zm-133.39 0 2.16-2.1.8.77-2.16 2.1-.8-.77Zm14.87 3.08h-.78v-3.83h2.02v.78h-1.24v3.05Zm12.51 0h-.79V4.16h2.03v.76h-1.24v9.58Z"/></g><path fill="#fff" d="M2.16 5.8 0 7.88l2.16 2.1 2.17-2.1-2.17-2.1Zm133.4 0-2.16 2.09 2.17 2.1 2.16-2.1-2.17-2.1Z"/><path fill="#fff" fill-rule="evenodd" d="M20.93 7.03c.1-.22.16-.46.16-.7V1.67c0-.44-.19-.86-.51-1.18A1.77 1.77 0 0 0 19.36 0h-5.93v15.78h5.93a1.72 1.72 0 0 0 1.73-1.67V8.95a1.85 1.85 0 0 0-.63-1.35c.2-.15.36-.35.47-.57Zm-4.7-4.32h2.04v3.8h-2.04v-3.8Zm0 6.51h2.04v3.83h-2.04V9.22ZM33.09.5a1.77 1.77 0 0 0-1.22-.5h-4.2a1.78 1.78 0 0 0-1.23.49 1.66 1.66 0 0 0-.5 1.18v12.45c0 .44.18.86.5 1.17.33.31.77.5 1.22.5h4.21c.46-.01.9-.2 1.21-.5.33-.31.51-.73.52-1.17V1.67c0-.44-.19-.86-.51-1.18Zm-4.35 2.2h2.03v10.35h-2.03V2.71Zm13.59 6.52 1.14 6.56h2.8L45.1 9.06a1.62 1.62 0 0 0 .99-1.48V1.67a1.6 1.6 0 0 0-.5-1.18A1.72 1.72 0 0 0 44.4 0h-5.93v15.78h2.8V9.22h1.07Zm-1.08-6.51h2.04v3.8h-2.04v-3.8ZM57.74.5a1.77 1.77 0 0 0-1.22-.5H52.3c-.46 0-.9.18-1.21.5-.32.3-.5.73-.5 1.17v12.45c0 .44.19.86.51 1.17.33.31.76.5 1.22.5h4.2a1.73 1.73 0 0 0 1.73-1.67V1.67c0-.44-.2-.86-.51-1.18Zm-4.35 2.2h2.03v10.35h-2.03V2.71ZM70.25.5a1.77 1.77 0 0 0-1.22-.5H63.1v15.79h5.93a1.73 1.73 0 0 0 1.73-1.67V1.67c0-.44-.2-.86-.51-1.18ZM65.9 2.7h2.03v10.35H65.9V2.71Z" clip-rule="evenodd"/><path fill="#fff" d="M78.55 0h-2.8v15.78h2.8V0Zm12.47 15.78V0H88.2v6.47L86.15 0h-2.78v15.78h2.8v-6.9l2.04 6.9h2.8ZM103.01 7a1.77 1.77 0 0 0-1.21-.48h-3.12V2.7h2.03v2.78l2.82-.63v-3.2c0-.43-.19-.85-.5-1.17A1.78 1.78 0 0 0 101.8 0h-4.2a1.78 1.78 0 0 0-1.22.49 1.66 1.66 0 0 0-.5 1.18v5.89a1.62 1.62 0 0 0 .5 1.18 1.73 1.73 0 0 0 1.23.48h3.1v3.84h-2.03v-2.82l-2.8.63v3.25c0 .44.18.86.5 1.17.33.31.76.49 1.22.5h4.2a1.73 1.73 0 0 0 1.73-1.67V8.19c0-.45-.2-.87-.52-1.18Zm13.38 8.79-2.62-7.92L116.41 0h-2.85l-2.14 6.52h-.24V0h-2.8v15.78h2.8V9.23h.26l2.1 6.46.02.1h2.83ZM123.77 0h-2.8v15.78h2.8V0Z"/></svg>